<?xml version="1.0" standalone="no"?><!DOCTYPE svg PUBLIC "-//W3C//DTD SVG 1.1//EN" "http://www.w3.org/Graphics/SVG/1.1/DTD/svg11.dtd"><svg t="1649751219092" class="icon" viewBox="0 0 1024 1024" version="1.1" xmlns="http://www.w3.org/2000/svg" p-id="1149" xmlns:xlink="http://www.w3.org/1999/xlink" width="32" height="32"><defs><style type="text/css">@font-face { font-family: feedback-iconfont; src: url("//at.alicdn.com/t/font_1031158_u69w8yhxdu.woff2?t=1630033759944") format("woff2"), url("//at.alicdn.com/t/font_1031158_u69w8yhxdu.woff?t=1630033759944") format("woff"), url("//at.alicdn.com/t/font_1031158_u69w8yhxdu.ttf?t=1630033759944") format("truetype"); }
</style></defs><path d="M160 896H96V128a64 64 0 0 1 64-64h384a64 64 0 0 1 64 64v768h-64V128H160v768zM864 480h64v416h-64zM80 960a32 32 0 0 1 0-64H928a32 32 0 0 1 0 64H80z" p-id="1150" fill="#3d76ac"></path><path d="M971.648 482.176a32 32 0 0 1-23.296 59.648L564.16 391.84a32 32 0 0 1 23.264-59.616l384.256 149.952zM704.384 586.016a32 32 0 1 1 0 64h-128.64a32 32 0 0 1 0-64h128.64zM704.384 714.016a32 32 0 1 1 0 64h-128.64a32 32 0 0 1 0-64h128.64zM320 576a32 32 0 0 1-64 0v-64a32 32 0 0 1 64 0v64zM320 352a32 32 0 0 1-64 0V288a32 32 0 0 1 64 0v64zM448 352a32 32 0 1 1-64 0V288a32 32 0 1 1 64 0v64zM448 576a32 32 0 0 1-64 0v-64a32 32 0 0 1 64 0v64zM320 928H256v-213.984h201.6V928h-64v-149.984H320z" p-id="1151" fill="#3d76ac"></path></svg>