<?xml version="1.0" standalone="no"?><!DOCTYPE svg PUBLIC "-//W3C//DTD SVG 1.1//EN" "http://www.w3.org/Graphics/SVG/1.1/DTD/svg11.dtd"><svg t="1649411747391" class="icon" viewBox="0 0 1024 1024" version="1.1" xmlns="http://www.w3.org/2000/svg" p-id="2272" xmlns:xlink="http://www.w3.org/1999/xlink" width="16" height="16"><defs><style type="text/css">@font-face { font-family: feedback-iconfont; src: url("//at.alicdn.com/t/font_1031158_u69w8yhxdu.woff2?t=1630033759944") format("woff2"), url("//at.alicdn.com/t/font_1031158_u69w8yhxdu.woff?t=1630033759944") format("woff"), url("//at.alicdn.com/t/font_1031158_u69w8yhxdu.ttf?t=1630033759944") format("truetype"); }
</style></defs><path d="M516.31 718.01c-53.13 0-106.25-14.46-153.56-43.37l44.5-72.81c66.76 40.8 149.83 41.1 216.79 0.78 63.39-38.17 150.86-209.04 215.02-373.19-175.1-20.09-367.04-22.72-430.43 15.45-56.76 34.18-93.21 91.63-100.02 157.64l-84.88-8.75c9.59-92.94 60.94-173.85 140.89-221.99 112.15-67.53 404.43-37.96 524.89-22.11 16.43 2.16 30.75 11.54 39.3 25.74 8.55 14.2 10.13 31.25 4.35 46.78-42.34 113.87-152.95 386.02-265.1 453.55-46.85 28.19-99.3 42.28-151.75 42.28z" p-id="2273" fill="#1E90FF"></path><path d="M170.67 892.64H85.33c0-118.86 51.24-243.28 140.57-341.34 91.91-100.89 211.74-158.76 328.76-158.76v85.33c-93.07 0-189.9 47.71-265.68 130.89-74.08 81.33-118.31 187.45-118.31 283.88z" p-id="2274" fill="#1E90FF"></path></svg>