<?xml version="1.0" standalone="no"?><!DOCTYPE svg PUBLIC "-//W3C//DTD SVG 1.1//EN" "http://www.w3.org/Graphics/SVG/1.1/DTD/svg11.dtd"><svg t="1649411816762" class="icon" viewBox="0 0 1024 1024" version="1.1" xmlns="http://www.w3.org/2000/svg" p-id="4389" xmlns:xlink="http://www.w3.org/1999/xlink" width="16" height="16"><defs><style type="text/css">@font-face { font-family: feedback-iconfont; src: url("//at.alicdn.com/t/font_1031158_u69w8yhxdu.woff2?t=1630033759944") format("woff2"), url("//at.alicdn.com/t/font_1031158_u69w8yhxdu.woff?t=1630033759944") format("woff"), url("//at.alicdn.com/t/font_1031158_u69w8yhxdu.ttf?t=1630033759944") format("truetype"); }
</style></defs><path d="M483.447467 112.110933L106.7008 285.5936a68.266667 68.266667 0 0 0 1.672533 124.757333l376.746667 161.399467a68.266667 68.266667 0 0 0 53.76 0l376.763733-161.450667a68.266667 68.266667 0 0 0 1.655467-124.757333L540.552533 112.093867a68.266667 68.266667 0 0 0-57.105066 0zM135.253333 347.5968L512 174.114133l376.746667 173.448534L512 509.013333 135.253333 347.579733z" fill="#1E90FF" p-id="4390"></path><path d="M802.065067 409.6a34.133333 34.133333 0 0 1 34.048 31.573333l0.085333 2.56v276.155734a68.266667 68.266667 0 0 1-34.338133 59.255466l-3.242667 1.7408-255.965867 128.802134a68.266667 68.266667 0 0 1-57.719466 1.706666l-3.652267-1.706666-255.965867-128.802134a68.266667 68.266667 0 0 1-37.4784-57.326933L187.733333 719.889067V443.733333a34.133333 34.133333 0 0 1 68.181334-2.56L256 443.733333v276.155734l255.965867 128.8192 255.965866-128.8192V443.733333a34.133333 34.133333 0 0 1 34.133334-34.133333z" fill="#1E90FF" p-id="4391"></path><path d="M947.2 452.266667v166.638933c0 23.381333-13.2096 44.765867-34.133333 55.227733a23.586133 23.586133 0 0 1-34.133334-21.0944V486.4l68.266667-34.133333z" fill="#1E90FF" p-id="4392"></path></svg>