<?xml version="1.0" standalone="no"?><!DOCTYPE svg PUBLIC "-//W3C//DTD SVG 1.1//EN" "http://www.w3.org/Graphics/SVG/1.1/DTD/svg11.dtd"><svg t="1649411842600" class="icon" viewBox="0 0 1024 1024" version="1.1" xmlns="http://www.w3.org/2000/svg" p-id="4779" xmlns:xlink="http://www.w3.org/1999/xlink" width="16" height="16"><defs><style type="text/css">@font-face { font-family: feedback-iconfont; src: url("//at.alicdn.com/t/font_1031158_u69w8yhxdu.woff2?t=1630033759944") format("woff2"), url("//at.alicdn.com/t/font_1031158_u69w8yhxdu.woff?t=1630033759944") format("woff"), url("//at.alicdn.com/t/font_1031158_u69w8yhxdu.ttf?t=1630033759944") format("truetype"); }
</style></defs><path d="M648.014769 198.459077a39.384615 39.384615 0 0 1 69.868308-21.129846c15.261538-5.592615 30.326154-11.756308 45.134769-18.471385A430.867692 430.867692 0 0 0 551.384615 80.541538v133.651693a648.605538 648.605538 0 0 0 96.630154-15.753846zM800.393846 472.615385h143.064616a431.655385 431.655385 0 0 0-115.928616-257.496616 724.657231 724.657231 0 0 1-74.377846 33.122462A627.869538 627.869538 0 0 1 800.393846 472.615385z m-78.808615 0a548.883692 548.883692 0 0 0-43.815385-200.408616c-41.156923 10.633846-83.416615 17.703385-126.385231 21.011693V472.615385h170.200616zM617.944615 932.194462C793.678769 888.024615 926.779077 736.492308 943.458462 551.384615h-145.979077a628.027077 628.027077 0 0 1-179.53477 380.809847zM718.257231 551.384615H551.384615v335.753847A549.454769 549.454769 0 0 0 718.257231 551.384615zM472.615385 295.049846c-62.621538-1.870769-124.061538-11.677538-183.276308-29.026461a39.384615 39.384615 0 1 1 22.173538-75.59877A648.743385 648.743385 0 0 0 472.615385 216.241231V80.541538C264.782769 99.249231 99.249231 264.782769 80.541538 472.615385H472.615385v-177.565539z m0 648.408616V551.384615H80.541538C99.249231 759.217231 264.782769 924.750769 472.615385 943.458462zM512 1024C229.218462 1024 0 794.781538 0 512S229.218462 0 512 0s512 229.218462 512 512-229.218462 512-512 512z" fill="#1E90FF" p-id="4780"></path></svg>