<?xml version="1.0" standalone="no"?><!DOCTYPE svg PUBLIC "-//W3C//DTD SVG 1.1//EN" "http://www.w3.org/Graphics/SVG/1.1/DTD/svg11.dtd"><svg t="1649639915650" class="icon" viewBox="0 0 1030 1024" version="1.1" xmlns="http://www.w3.org/2000/svg" p-id="650" xmlns:xlink="http://www.w3.org/1999/xlink" width="16.09375" height="16"><defs><style type="text/css">@font-face { font-family: feedback-iconfont; src: url("//at.alicdn.com/t/font_1031158_u69w8yhxdu.woff2?t=1630033759944") format("woff2"), url("//at.alicdn.com/t/font_1031158_u69w8yhxdu.woff?t=1630033759944") format("woff"), url("//at.alicdn.com/t/font_1031158_u69w8yhxdu.ttf?t=1630033759944") format("truetype"); }
</style></defs><path d="M610.185 319.714c0-17.4-14.08-33.77-31.48-33.77H200.937c-17.4 0-31.48 16.37-31.48 33.77s14.08 33.769 31.48 33.769h377.767c17.4 0 31.48-16.37 31.48-33.77zM200.938 482.42c-17.4 0-31.48 16.88-31.48 34.28s14.08 34.28 31.48 34.28h251.845c17.4 0 31.48-16.88 31.48-34.28s-14.08-34.28-31.48-34.28H200.937zM389.821 680.94H200.938c-17.4 0-31.48 16.881-31.48 34.281s14.08 34.281 31.48 34.281h188.883c17.402 0 31.481-16.88 31.481-34.28 0-17.4-14.08-34.281-31.48-34.281z" fill="#a0afc4" p-id="651"></path><path d="M337.99 888.378H134.965c-31.664 0-57.427-24.625-57.427-54.906v-645.72c0-30.282 25.762-54.906 57.427-54.906h577.778c31.603 0 57.366 24.624 57.366 54.906v133.976c0 17.402 14.08 31.481 31.48 31.481s31.48-14.08 31.48-31.48V187.751c0-64.99-53.983-117.867-120.326-117.867H134.965c-66.403 0-120.388 52.877-120.388 117.867v645.72c0 64.99 53.983 117.867 120.388 117.867H337.99c17.4 0 31.48-14.08 31.48-31.48 0-17.401-14.08-31.48-31.48-31.48zM738.448 787.422h-33.97c-2.512 0-5.026 1.186-6.922 3.559-1.92 2.37-2.87 5.5-2.87 8.61v20.277c0 3.131 0.95 6.241 2.87 8.61 1.896 2.374 4.41 3.56 6.923 3.56h33.97c2.49 0 5.002-1.186 6.925-3.56 1.898-2.37 2.87-5.477 2.87-8.61V799.59c0-3.107-0.972-6.24-2.87-8.61-1.923-2.373-4.436-3.56-6.926-3.56zM697.768 753.196c1.897 1.565 4.388 2.373 6.88 2.373l33.752 0.14c2.514 0.024 5.027-0.781 6.95-2.37 1.922-1.587 2.895-3.673 2.871-5.788l-0.051-58.038v-89.295c0-2.063-0.946-4.152-2.868-5.742-1.9-1.587-4.413-2.394-6.926-2.394h-33.922c-2.49 0-5.003 0.808-6.922 2.394-1.9 1.59-2.847 3.68-2.847 5.742v89.96l0.212 57.279c0.023 2.087 0.972 4.153 2.87 5.74z" fill="#a0afc4" p-id="652"></path><path d="M1003.631 813.98L786.833 438.399c-26.439-45.93-100.467-45.93-126.906 0L443.068 813.98l-0.061 0.03c-13.22 22.934-13.158 50.326 0.061 73.26 13.282 22.934 36.953 36.615 63.453 36.615h433.657c26.5 0 50.294-13.711 63.514-36.676 13.22-22.934 13.22-50.326-0.06-73.23z m-54.477 41.78c-1.106 1.937-3.75 5.165-8.976 5.165H506.52c-5.164 0-7.808-3.228-8.915-5.165-1.107-1.936-2.583-5.84 0-10.298l216.797-375.583c5.287-8.977 12.666-8.977 17.954 0l216.797 375.613c2.583 4.458 1.108 8.362 0 10.268z" fill="#a0afc4" p-id="653"></path></svg>