<?xml version="1.0" standalone="no"?><!DOCTYPE svg PUBLIC "-//W3C//DTD SVG 1.1//EN" "http://www.w3.org/Graphics/SVG/1.1/DTD/svg11.dtd"><svg t="1649411914084" class="icon" viewBox="0 0 1024 1024" version="1.1" xmlns="http://www.w3.org/2000/svg" p-id="6583" xmlns:xlink="http://www.w3.org/1999/xlink" width="16" height="16"><defs><style type="text/css">@font-face { font-family: feedback-iconfont; src: url("//at.alicdn.com/t/font_1031158_u69w8yhxdu.woff2?t=1630033759944") format("woff2"), url("//at.alicdn.com/t/font_1031158_u69w8yhxdu.woff?t=1630033759944") format("woff"), url("//at.alicdn.com/t/font_1031158_u69w8yhxdu.ttf?t=1630033759944") format("truetype"); }
</style></defs><path d="M918.018 387.078l-58.768-42.743c-8.01-6.008-18.278-9.01-28.542-9.01-17.114 0-34.23 8.343-40.906 25.04L512 785.693 223.513 371.052c-7.823-15.644-24.233-25.561-40.849-25.565-6.082 0-12.19 1.33-17.918 4.194l-48.082 21.372c-21.372 5.342-32.053 21.368-32.053 42.738v404.462c0 90.82 32.496 140.456 123.315 140.456h593.503c90.82 0 137.958-49.638 137.958-140.456V429.816c0-16.025-10.682-32.059-21.369-42.738z m-43.701 431.175c0 55.659-19.073 75.385-72.887 75.385H207.927c-36.32 0-58.244 0-58.244-75.385V427.576l25.861-11.533 283.041 406.813a65.07 65.07 0 0 0 107.895-1.581l269.85-413.148 37.986 27.626v382.5z" p-id="6584" fill="#1E90FF"></path><path d="M317.937 382.86c57.963 0 146.908-58.474 188.93-88.634 42.072 29.95 130.952 87.904 188.788 87.904 40.733 0 66.469-26.498 67.231-69.678V122.037l-1.906-11.056c-6.037-16.586-27.325-44.61-69.138-44.61-24.02 0-50.328 9.183-79.877 27.738-57.806 34.59-88.472 53.009-104.703 62.791-15.961-9.685-46.529-28.165-104.935-63.33-30.12-19.033-56.492-28.279-80.576-28.279-41.813 0-63.101 28.12-69.138 44.736L250.707 313.5c0.76 42.766 26.496 69.36 67.23 69.36zM539.33 213.513c15.315-9.246 45.88-27.58 106.631-63.927 35.395-22.146 47.087-18.778 51.853-17.38v179.676c-0.063 2.479-0.254 4.195-0.19 5.084-0.509 0.063-1.144 0.095-1.97 0.095-32.663 0-106.63-43.815-156.324-79.623v-23.925z m-223.554-82.134c5.02-2.415 16.394-5.147 52.361 17.57 60.433 36.38 90.871 54.777 106.122 64.022v24.53c-49.629 36.093-123.66 80.29-156.323 80.29l-1.144 1.97c0-0.032-0.954-2.002-1.017-6.832v-181.55zM458.619 533.195a53.379 53.379 0 1 0 106.758 0 53.379 53.379 0 1 0-106.758 0z" p-id="6585" fill="#1E90FF"></path></svg>