<?xml version="1.0" standalone="no"?><!DOCTYPE svg PUBLIC "-//W3C//DTD SVG 1.1//EN" "http://www.w3.org/Graphics/SVG/1.1/DTD/svg11.dtd"><svg t="1649898706547" class="icon" viewBox="0 0 1024 1024" version="1.1" xmlns="http://www.w3.org/2000/svg" p-id="2680" width="16" height="16" xmlns:xlink="http://www.w3.org/1999/xlink"><defs><style type="text/css">@font-face { font-family: feedback-iconfont; src: url("//at.alicdn.com/t/font_1031158_u69w8yhxdu.woff2?t=1630033759944") format("woff2"), url("//at.alicdn.com/t/font_1031158_u69w8yhxdu.woff?t=1630033759944") format("woff"), url("//at.alicdn.com/t/font_1031158_u69w8yhxdu.ttf?t=1630033759944") format("truetype"); }
</style></defs><path d="M570.026667 629.077333c-3.413333 0-6.826667-0.682667-10.24-2.389333l-137.898667-64.853333c-11.946667-5.461333-17.066667-19.797333-11.605333-31.744l211.626666-451.925334c2.730667-5.802667 7.850667-10.24 13.994667-12.629333 6.144-2.048 12.970667-1.706667 18.773333 1.365333l104.448 53.589334c10.922667 5.461333 15.701333 18.432 11.264 29.696l-178.517333 463.189333c-2.389333 6.144-7.168 11.264-13.312 13.653333-2.389333 1.365333-5.461333 2.048-8.533333 2.048z m-106.154667-100.352l92.842667 43.690667 161.450666-419.498667-63.488-32.426666-190.805333 408.234666z" p-id="2681" fill="#a0afc4"></path><path d="M484.352 744.448c-60.757333 0-110.250667-8.192-149.845333-24.917333-40.96-17.066667-73.045333-44.032-98.645334-82.261334-45.056-67.584-33.450667-231.082667-31.744-249.514666 1.024-12.288 11.264-21.845333 23.893334-21.845334l529.749333 2.730667c12.288 0 22.528 9.216 23.552 21.504 10.922667 108.544-7.168 217.770667-44.032 265.898667-38.229333 49.493333-74.410667 82.261333-226.304 87.722666-8.874667 0.341333-17.749333 0.682667-26.624 0.682667z m-233.813333-330.752c-2.389333 55.978667-1.024 157.354667 25.258666 196.949333 20.48 30.72 45.056 51.2 77.482667 64.853334 38.912 16.384 90.112 22.869333 156.330667 20.48 140.970667-5.12 163.84-34.816 190.122666-69.290667 23.210667-30.037333 42.666667-112.298667 36.181334-210.602667l-485.376-2.389333z" p-id="2682" fill="#a0afc4"></path><path d="M479.914667 836.266667c-132.096 0-166.229333-27.306667-171.008-50.517334-0.682667-3.754667-0.682667-7.850667 0.682666-11.605333l18.432-60.416 45.738667 13.994667-13.994667 46.08c12.970667 6.144 48.469333 16.384 136.533334 15.018666 78.165333-1.365333 117.76-9.216 137.216-15.36 1.024-0.341333 1.706667-0.682667 2.730666-1.024l-21.504-44.032 43.008-20.821333 31.061334 63.488c3.072 6.485333 3.072 13.994667 0.341333 20.48-12.629333 27.648-78.848 43.349333-191.829333 45.397333-6.144-0.682667-11.605333-0.682667-17.408-0.682666z m164.522666-42.325334c-6.485333 0 2.048 4.096 2.048 0H644.437333z" p-id="2683" fill="#a0afc4"></path></svg>