<?xml version="1.0" standalone="no"?><!DOCTYPE svg PUBLIC "-//W3C//DTD SVG 1.1//EN" "http://www.w3.org/Graphics/SVG/1.1/DTD/svg11.dtd"><svg t="1649898805588" class="icon" viewBox="0 0 1024 1024" version="1.1" xmlns="http://www.w3.org/2000/svg" p-id="3701" xmlns:xlink="http://www.w3.org/1999/xlink" width="16" height="16"><defs><style type="text/css">@font-face { font-family: feedback-iconfont; src: url("//at.alicdn.com/t/font_1031158_u69w8yhxdu.woff2?t=1630033759944") format("woff2"), url("//at.alicdn.com/t/font_1031158_u69w8yhxdu.woff?t=1630033759944") format("woff"), url("//at.alicdn.com/t/font_1031158_u69w8yhxdu.ttf?t=1630033759944") format("truetype"); }
</style></defs><path d="M899.357494 125.038268c-21.925896 0-29.234528 7.308632-29.234528 29.234528v730.863197c0 36.54316-29.234528 65.777688-65.777687 65.777687H234.271985c-36.54316 0-73.08632-29.234528-80.394951-65.777687v-73.08632c7.308632-36.54316 43.851792-58.469056 73.086319-58.469056h533.530134c21.925896 0 29.234528-7.308632 29.234528-29.234528V110.421004c0-65.777688-43.851792-109.629479-109.62948-109.629479H234.271985c-65.777688-7.308632-124.246743 36.54316-138.864007 109.629479v796.640885c14.617264 58.469056 65.777688 109.629479 124.246743 116.938111h577.381926c65.777688 0 116.938111-58.469056 131.555375-116.938111V146.964164c0-7.308632-21.925896-21.925896-29.234528-21.925896z" p-id="3702" fill="#a0afc4"></path></svg>