<?xml version="1.0" standalone="no"?><!DOCTYPE svg PUBLIC "-//W3C//DTD SVG 1.1//EN" "http://www.w3.org/Graphics/SVG/1.1/DTD/svg11.dtd"><svg t="1649640039027" class="icon" viewBox="0 0 1024 1024" version="1.1" xmlns="http://www.w3.org/2000/svg" p-id="3469" xmlns:xlink="http://www.w3.org/1999/xlink" width="16" height="16"><defs><style type="text/css">@font-face { font-family: feedback-iconfont; src: url("//at.alicdn.com/t/font_1031158_u69w8yhxdu.woff2?t=1630033759944") format("woff2"), url("//at.alicdn.com/t/font_1031158_u69w8yhxdu.woff?t=1630033759944") format("woff"), url("//at.alicdn.com/t/font_1031158_u69w8yhxdu.ttf?t=1630033759944") format("truetype"); }
</style></defs><path d="M263.314286 373.028571c0-29.257143 0-51.2 7.314285-80.457142H73.142857v102.4h190.171429v-21.942858zM533.942857 29.257143V0H73.142857v102.4h321.828572C431.542857 65.828571 482.742857 43.885714 533.942857 29.257143zM343.771429 153.6H73.142857v102.4h212.114286c14.628571-43.885714 36.571429-73.142857 58.514286-102.4z m0 446.171429H73.142857v102.4h394.971429c-43.885714-29.257143-87.771429-58.514286-124.342857-102.4z m-73.142858-153.6H73.142857v102.4h234.057143c-14.628571-29.257143-29.257143-65.828571-36.571429-102.4z m365.714286-394.971429C453.485714 58.514286 314.514286 204.8 321.828571 380.342857c7.314286 175.542857 153.6 314.514286 329.142858 314.514286 175.542857-7.314286 314.514286-146.285714 314.514285-321.828572C958.171429 197.485714 811.885714 51.2 636.342857 51.2z m0 585.142857C490.057143 636.342857 373.028571 512 373.028571 365.714286s124.342857-263.314286 270.628572-256c146.285714 0 256 117.028571 256 263.314285s-117.028571 270.628571-263.314286 263.314286z m0 0V168.228571c-117.028571 0-204.8 95.085714-204.8 212.114286C431.542857 497.371429 526.628571 585.142857 643.657143 585.142857c109.714286 0 204.8-95.085714 204.8-204.8 0-117.028571-95.085714-212.114286-212.114286-204.8v460.8z m14.628572 343.771429v43.885714h-36.571429v-43.885714c-29.257143 0-51.2-7.314286-73.142857-21.942857l14.628571-51.2c21.942857 14.628571 51.2 21.942857 73.142857 21.942857 21.942857 0 43.885714-7.314286 43.885715-29.257143 0-14.628571-14.628571-29.257143-43.885715-36.571429-43.885714-7.314286-73.142857-36.571429-80.457142-80.457143 0-43.885714 36.571429-73.142857 73.142857-73.142857v-36.571428H658.285714v36.571428c21.942857 0 43.885714 7.314286 65.828572 14.628572l-14.628572 51.2c-21.942857-7.314286-43.885714-14.628571-65.828571-14.628572-29.257143 0-36.571429 14.628571-36.571429 21.942857 7.314286 21.942857 29.257143 36.571429 51.2 36.571429 43.885714 0 80.457143 43.885714 73.142857 87.771429 0 43.885714-36.571429 73.142857-80.457142 73.142857z" p-id="3470" fill="#a0afc4"></path></svg>