<?xml version="1.0" standalone="no"?><!DOCTYPE svg PUBLIC "-//W3C//DTD SVG 1.1//EN" "http://www.w3.org/Graphics/SVG/1.1/DTD/svg11.dtd"><svg t="1649640060308" class="icon" viewBox="0 0 1024 1024" version="1.1" xmlns="http://www.w3.org/2000/svg" p-id="4397" xmlns:xlink="http://www.w3.org/1999/xlink" width="16" height="16"><defs><style type="text/css">@font-face { font-family: feedback-iconfont; src: url("//at.alicdn.com/t/font_1031158_u69w8yhxdu.woff2?t=1630033759944") format("woff2"), url("//at.alicdn.com/t/font_1031158_u69w8yhxdu.woff?t=1630033759944") format("woff"), url("//at.alicdn.com/t/font_1031158_u69w8yhxdu.ttf?t=1630033759944") format("truetype"); }
</style></defs><path d="M169.1 552l245.1 275.2L527 906.8l307.3-285.5 28.9-86.9-228.6-6.2-40.3-32.1-51.8 108.7L437 465.1l-50.7 72.4-226.5-2.1z" fill="#a0afc4" p-id="4398"></path><path d="M694.7 193.7c-64.4 0-126 24.5-172.6 68-46.6-43.5-108.2-68-172.6-68-132.2 0-235.8 101.8-235.8 231.9 0 151.9 130.2 268.6 327.3 445.2l63.3 55.5c10.2 8.9 25.4 8.9 35.6 0l54.5-47.7 8.7-7.8c197.1-176.6 327.3-293.3 327.3-445.2 0-130.1-103.5-231.9-235.7-231.9z m-338.4 49.8c57.9 1.8 112 29.8 149.9 73.6l15.8 18.2 15.8-18.2c38-43.8 92-71.8 149.9-73.6 109.5-3.5 193 76 193 182.1 0 31.2-7.3 61.2-20.7 91.3H650.1l-19.3-40.3c-4.7-9.9-14.5-15.7-25.7-16.2-10.9 0.1-21 6.5-25.6 16.4l-47.6 96.7-59.8-125.3c-4.9-10.3-14.8-18-26.2-18.4-10.9-0.4-20.5 4.8-26.1 13.8l-46.2 73.5H184.2c-13.5-30.1-20.8-60.3-20.8-91.5-0.1-106.2 83.4-185.6 192.9-182.1zM570 833.8l-30.1 26.5c-10.2 9-25.5 9-35.7 0l-30.1-26.5c-117.3-105.1-209.7-187.9-262.2-267h189.2l41.2-65.7 62.1 130c5.1 10.8 15.8 17.5 27.7 17.5h0.1c12 0 22.6-6.8 27.7-17.7l45.5-92.2 12.4 26 215.7 0.1c-52.3 79.6-145.1 162.9-263.5 269z" fill="#a0afc4" p-id="4399"></path></svg>